<?xml version="1.0" encoding="utf-8"?>
<!-- Generator: Adobe Illustrator 18.1.1, SVG Export Plug-In . SVG Version: 6.00 Build 0)  -->
<svg version="1.0" xmlns="http://www.w3.org/2000/svg" xmlns:xlink="http://www.w3.org/1999/xlink" x="0px" y="0px"
	 viewBox="0 0 566.9 566.9" enable-background="new 0 0 566.9 566.9" xml:space="preserve">
<g id="Layer_2" display="none">
	<rect x="0" y="0" display="inline" fill="#00AEEF" stroke="#000000" stroke-miterlimit="10" width="566.9" height="566.9"/>
</g>
<g id="Layer_1">
	<g>
		<path fill="none" stroke="#FFFFFF" stroke-width="6" stroke-miterlimit="10" d="M227,281.3h-3.4c-9.8,0-17.8-8-17.8-17.8v0
			c0-9.8,8-17.8,17.8-17.8h3.4c9.8,0,17.8,8,17.8,17.8v0C244.8,273.3,236.8,281.3,227,281.3z"/>
		<path fill="none" stroke="#FFFFFF" stroke-width="6" stroke-miterlimit="10" d="M368,279.8h-3.4c-9.8,0-17.8-8-17.8-17.8v0
			c0-9.8,8-17.8,17.8-17.8h3.4c9.8,0,17.8,8,17.8,17.8v0C385.8,271.9,377.8,279.8,368,279.8z"/>
		<path fill="none" stroke="#FFFFFF" stroke-width="6" stroke-miterlimit="10" d="M295.3,279.8h-3.4c-9.8,0-17.8-8-17.8-17.8v0
			c0-9.8,8-17.8,17.8-17.8h3.4c9.8,0,17.8,8,17.8,17.8v0C313.1,271.9,305.2,279.8,295.3,279.8z"/>
		<line fill="none" stroke="#FFFFFF" stroke-width="6" stroke-miterlimit="10" x1="164.9" y1="265.7" x2="102" y2="387.6"/>
		<line fill="none" stroke="#FFFFFF" stroke-width="6" stroke-miterlimit="10" x1="202.7" y1="355.8" x2="102" y2="387.6"/>
		<line fill="none" stroke="#FFFFFF" stroke-width="6" stroke-miterlimit="10" x1="202.7" y1="355.8" x2="202.7" y2="371.7"/>
		<line fill="none" stroke="#FFFFFF" stroke-width="6" stroke-miterlimit="10" x1="398.8" y1="357.1" x2="416.6" y2="355.8"/>
		<line fill="none" stroke="#FFFFFF" stroke-width="6" stroke-miterlimit="10" x1="202.7" y1="371.7" x2="398.8" y2="357.1"/>
		<line fill="none" stroke="#FFFFFF" stroke-width="6" stroke-miterlimit="10" x1="164.9" y1="265.7" x2="158.1" y2="173.4"/>
		<line fill="none" stroke="#FFFFFF" stroke-width="6" stroke-miterlimit="10" x1="416.6" y1="355.8" x2="416.6" y2="141.5"/>
		<line fill="none" stroke="#FFFFFF" stroke-width="6" stroke-miterlimit="10" x1="416.6" y1="141.5" x2="158.1" y2="173.4"/>
	</g>
</g>
</svg>
