<?xml version="1.0" encoding="utf-8"?>
<!-- Generator: Adobe Illustrator 18.1.1, SVG Export Plug-In . SVG Version: 6.00 Build 0)  -->
<svg version="1.0" xmlns="http://www.w3.org/2000/svg" xmlns:xlink="http://www.w3.org/1999/xlink" x="0px" y="0px"
	 viewBox="0 0 566.9 566.9" enable-background="new 0 0 566.9 566.9" xml:space="preserve">
<g id="Layer_2" display="none">
	
		<rect x="0" y="0" display="inline" fill="#00AEEF" stroke="#FFFFFF" stroke-width="3" stroke-miterlimit="10" width="566.9" height="566.9"/>
</g>
<g id="Layer_1">
	<g>
		<path fill="none" stroke="#FFFFFF" stroke-width="5" stroke-miterlimit="10" d="M376.8,469.3H190.1c-20.1,0-36.3-16.3-36.3-36.3
			V278.1c0-20.1,16.3-36.3,36.3-36.3h186.7c20.1,0,36.3,16.3,36.3,36.3V433C413.1,453,396.9,469.3,376.8,469.3z"/>
		<path fill="none" stroke="#FFFFFF" stroke-width="5" stroke-miterlimit="10" d="M188.1,160.8c0-52.4,41.6-95,92.8-95
			s92.8,42.5,92.8,95"/>
		<line fill="none" stroke="#FFFFFF" stroke-width="5" stroke-miterlimit="10" x1="373.8" y1="160.8" x2="373.8" y2="241.8"/>
		<path fill="none" stroke="#FFFFFF" stroke-width="5" stroke-miterlimit="10" d="M216.4,160.8c0-36.5,28.9-66.1,64.6-66.1
			s64.6,29.6,64.6,66.1"/>
		<line fill="none" stroke="#FFFFFF" stroke-width="5" stroke-miterlimit="10" x1="345.6" y1="160.8" x2="345.6" y2="241.8"/>
		<line fill="none" stroke="#FFFFFF" stroke-width="5" stroke-miterlimit="10" x1="188.1" y1="160.8" x2="188.1" y2="242.2"/>
		<line fill="none" stroke="#FFFFFF" stroke-width="5" stroke-miterlimit="10" x1="216.4" y1="241.8" x2="216.4" y2="160.8"/>
		<path fill="none" stroke="#FFFFFF" stroke-width="5" stroke-miterlimit="10" d="M269.5,353.6c-5.1-2.9-8.5-8.4-8.5-14.7
			c0-9.4,7.6-17,17-17s17,7.6,17,17c0,6.3-3.4,11.8-8.5,14.7"/>
		<polyline fill="none" stroke="#FFFFFF" stroke-width="5" stroke-miterlimit="10" points="286.5,353.6 286.5,384.7 269.5,384.7 
			269.5,353.6 		"/>
	</g>
</g>
</svg>
