<?xml version="1.0" encoding="utf-8"?>
<!-- Generator: Adobe Illustrator 18.1.1, SVG Export Plug-In . SVG Version: 6.00 Build 0)  -->
<svg version="1.0" xmlns="http://www.w3.org/2000/svg" xmlns:xlink="http://www.w3.org/1999/xlink" x="0px" y="0px"
	 viewBox="0 0 566.9 566.9" enable-background="new 0 0 566.9 566.9" xml:space="preserve">
<g id="Layer_2" display="none">
	<rect x="0" y="0" display="inline" fill="#00AEEF" stroke="#00AEEF" stroke-miterlimit="10" width="565.6" height="565.5"/>
</g>
<g id="Layer_1">
	<path fill="none" stroke="#FFFFFF" stroke-width="5" stroke-miterlimit="10" d="M217.6,306l-124.5-0.2c-4.1,0-7.5-3.4-7.5-7.5
		l0.2-166c0-4.1,3.4-7.5,7.5-7.5l274.6,0.4c4.1,0,7.5,3.4,7.5,7.5l-0.1,51.2"/>
	<path fill="none" stroke="#FFFFFF" stroke-width="5" stroke-miterlimit="10" d="M375.4,255l-0.1,43.7c0,4.1-3.4,7.5-7.5,7.5
		L217.6,306"/>
	<polyline fill="none" stroke="#FFFFFF" stroke-width="5" stroke-miterlimit="10" points="243.3,306.1 243.3,349.4 217.6,349.4 
		217.6,306 243.3,306.1 	"/>
	<path fill="none" stroke="#FFFFFF" stroke-width="5" stroke-miterlimit="10" d="M445.9,348.6l38.6-0.1c3,0,5.4,2.4,5.4,5.4l0.1,37
		c0,3-2.4,5.4-5.4,5.4l-403.9,1c-3,0-5.4-2.4-5.4-5.4l-0.1-37c0-3,2.4-5.4,5.4-5.4l298.8-0.8"/>
	<polyline fill="none" stroke="#FFFFFF" stroke-width="5" stroke-miterlimit="10" points="343.5,241.3 343.4,286.2 117.7,285.9 
		117.9,144.8 343.6,145.2 343.5,186.7 	"/>
	<g>
		<path fill="none" stroke="#FFFFFF" stroke-width="5" stroke-miterlimit="10" d="M363.9,258.6c41.7-10.3,44.3-48.5,44.3-48.5
			l-28.9-26c0,0-56.2-5.1-72,26.7L363.9,258.6z"/>
		<path fill="none" stroke="#FFFFFF" stroke-width="5" stroke-miterlimit="10" d="M408.2,210.1c0,0,14.7-15.6,12.2-22.8
			s-28.2-9.4-41-3.1"/>
		<path fill="none" stroke="#FFFFFF" stroke-width="5" stroke-miterlimit="10" d="M420.4,187.3"/>
		<path fill="none" stroke="#FFFFFF" stroke-width="5" stroke-miterlimit="10" d="M307.4,210.8c0,0,46.3,11,56.6,47.8"/>
		<path fill="none" stroke="#FFFFFF" stroke-width="5" stroke-miterlimit="10" d="M438.9,316.2c10.5-38.9,30.8-118.7,24.4-134.5
			c-8.5-21-39.7,0-39.7,0l-9.7,0.5"/>
		<path fill="none" stroke="#FFFFFF" stroke-width="5" stroke-miterlimit="10" d="M435.6,329.2c0,0-4,14.4,1.3,16.5
			c69.2,26.6-33.3,27.9-68.7,15.2c-35.4-12.7,55.1-15.9,55.1-15.9s38.9-134.9,30.4-155.9c0,0,1.7-18.4-32.8,2.9l-3.1,5.5l-6.4,9"/>
		<path fill="none" stroke="#FFFFFF" stroke-width="5" stroke-miterlimit="10" d="M436.3,325.7"/>
	</g>
	<path fill="none" stroke="#FFFFFF" stroke-width="5" stroke-miterlimit="10" d="M443.9,178.7"/>
	<line fill="none" stroke="#FFFFFF" stroke-width="5" stroke-miterlimit="10" x1="438.9" y1="316.2" x2="435.3" y2="330.4"/>
</g>
</svg>
