<?xml version="1.0" encoding="utf-8"?>
<!-- Generator: Adobe Illustrator 18.1.1, SVG Export Plug-In . SVG Version: 6.00 Build 0)  -->
<svg version="1.0" xmlns="http://www.w3.org/2000/svg" xmlns:xlink="http://www.w3.org/1999/xlink" x="0px" y="0px"
	 viewBox="0 0 566.9 566.9" enable-background="new 0 0 566.9 566.9" xml:space="preserve">
<g id="Layer_2" display="none">
	<rect x="0" y="0" display="inline" fill="#00AEEF" stroke="#000000" stroke-miterlimit="10" width="566.9" height="566.9"/>
</g>
<g id="Layer_1">
	<g>
		<path fill="none" stroke="#FFFFFF" stroke-width="6" stroke-miterlimit="10" d="M210.6,211.7h-78.2c-15.8,0-28.6-12.8-28.6-28.6
			v-67.8c0-15.8,12.8-28.6,28.6-28.6h78.2c15.8,0,28.6,12.8,28.6,28.6v67.8C239.2,198.9,226.4,211.7,210.6,211.7z"/>
		<path fill="none" stroke="#FFFFFF" stroke-width="6" stroke-miterlimit="10" d="M434.5,425.1h-78.2c-15.8,0-28.6-12.8-28.6-28.6
			v-67.8c0-15.8,12.8-28.6,28.6-28.6h78.2c15.8,0,28.6,12.8,28.6,28.6v67.8C463.1,412.3,450.3,425.1,434.5,425.1z"/>
		<path fill="none" stroke="#FFFFFF" stroke-width="6" stroke-miterlimit="10" d="M239.2,149.2h137c10.6,0,19.2,8.6,19.2,19.2v131.7
			"/>
		<path fill="none" stroke="#FFFFFF" stroke-width="6" stroke-miterlimit="10" d="M171.5,211.7v232.6c0,13.8,13,25,28.9,25h166
			c16,0,28.9-11.2,28.9-25v-19.2"/>
	</g>
</g>
</svg>
